<svg xmlns="http://www.w3.org/2000/svg" fill="none" viewBox="0 0 19 19" height="19" width="19">
<g clip-path="url(#clip0_565_3009)">
<path fill="#0052B4" d="M18.5 9.5C18.5 14.4705 14.4705 18.5 9.5 18.5C4.52947 18.5 0.5 14.4705 0.5 9.5C0.5 9.50211 9.5 0.50102 9.5 0.5C14.4705 0.5 18.5 4.52947 18.5 9.5Z"></path>
<path fill="#F0F0F0" d="M9.47656 9.50016H9.50064C9.50064 9.492 9.50064 9.4842 9.50064 9.47607C9.49263 9.48413 9.48461 9.49214 9.47656 9.50016Z"></path>
<path fill="#F0F0F0" d="M9.5 5.19564C9.5 3.61203 9.5 2.57432 9.5 0.5H9.49849C4.52862 0.500809 0.5 4.52989 0.5 9.49996H5.19564V6.85579L7.83982 9.49996H9.47595C9.484 9.49195 9.49202 9.48393 9.50004 9.47588C9.50004 8.86954 9.50004 8.32852 9.50004 7.83985L6.85583 5.19564H9.5Z"></path>
<path fill="#D80027" d="M5.05319 1.67383C3.64557 2.47536 2.47536 3.64557 1.67383 5.05319V9.49993H4.02167V4.0217V4.02167H9.49993C9.49993 3.28117 9.49993 2.57573 9.49993 1.67383H5.05319Z"></path>
<path fill="#D80027" d="M9.49963 8.39335L6.30207 5.19582H5.19531C5.19531 5.19578 5.19531 5.19582 5.19531 5.19582L9.4996 9.5001H9.49963C9.49963 9.5001 9.49963 8.73703 9.49963 8.39335Z"></path>
<path fill="#F0F0F0" d="M5.9287 11.0654L6.42264 12.0982L7.53805 11.8404L7.03855 12.8706L7.93552 13.5819L6.81871 13.8336L6.82184 14.9785L5.9287 14.2622L5.03559 14.9785L5.03872 13.8336L3.92188 13.5819L4.81889 12.8706L4.31932 11.8404L5.43479 12.0982L5.9287 11.0654Z"></path>
<path fill="#F0F0F0" d="M13.9761 13.022L14.223 13.5384L14.7807 13.4095L14.531 13.9245L14.9795 14.2802L14.4211 14.4061L14.4226 14.9785L13.9761 14.6204L13.5295 14.9785L13.531 14.4061L12.9727 14.2802L13.4211 13.9245L13.1714 13.4095L13.7291 13.5384L13.9761 13.022Z"></path>
<path fill="#F0F0F0" d="M11.6773 7.54346L11.9242 8.0599L12.4819 7.93095L12.2322 8.44602L12.6807 8.8017L12.1223 8.92756L12.1238 9.49997L11.6773 9.14184L11.2307 9.49997L11.2322 8.92756L10.6738 8.8017L11.1223 8.44602L10.8726 7.93095L11.4303 8.0599L11.6773 7.54346Z"></path>
<path fill="#F0F0F0" d="M13.9761 4.41309L14.223 4.92953L14.7807 4.80061L14.531 5.31569L14.9794 5.67133L14.4211 5.79722L14.4226 6.36964L13.9761 6.0115L13.5295 6.36964L13.531 5.79722L12.9727 5.67133L13.4211 5.31569L13.1714 4.80061L13.7291 4.92953L13.9761 4.41309Z"></path>
<path fill="#F0F0F0" d="M15.9819 6.76074L16.2289 7.27719L16.7866 7.14823L16.5369 7.66331L16.9853 8.01898L16.4269 8.14488L16.4285 8.71726L15.9819 8.35916L15.5354 8.71726L15.5369 8.14488L14.9785 8.01898L15.427 7.66331L15.1773 7.14823L15.7349 7.27719L15.9819 6.76074Z"></path>
<path fill="#F0F0F0" d="M14.5475 9.5L14.7418 10.0979H15.3704L14.8618 10.4674L15.0561 11.0652L14.5475 10.6957L14.0389 11.0652L14.2332 10.4674L13.7246 10.0979H14.3532L14.5475 9.5Z"></path>
</g>
<defs>
<clipPath id="clip0_565_3009">
<rect transform="translate(0.5 0.5)" fill="white" height="18" width="18"></rect>
</clipPath>
</defs>
</svg>
