<svg xmlns="http://www.w3.org/2000/svg" fill="none" viewBox="0 0 19 19" height="19" width="19">
<g clip-path="url(#clip0_565_2956)">
<path fill="#F0F0F0" d="M9.5 18.5C14.4706 18.5 18.5 14.4706 18.5 9.5C18.5 4.52944 14.4706 0.5 9.5 0.5C4.52944 0.5 0.5 4.52944 0.5 9.5C0.5 14.4706 4.52944 18.5 9.5 18.5Z"></path>
<path fill="#D80027" d="M18.5004 9.49978C18.5004 5.63009 16.0581 2.33121 12.6309 1.05957V17.94C16.0581 16.6683 18.5004 13.3695 18.5004 9.49978Z"></path>
<path fill="#0052B4" d="M0.5 9.49978C0.5 13.3695 2.94241 16.6683 6.36958 17.94V1.05957C2.94241 2.33121 0.5 5.63009 0.5 9.49978Z"></path>
</g>
<defs>
<clipPath id="clip0_565_2956">
<rect transform="translate(0.5 0.5)" fill="white" height="18" width="18"></rect>
</clipPath>
</defs>
</svg>
