<svg xmlns="http://www.w3.org/2000/svg" fill="none" viewBox="0 0 22 22" height="22" width="22">
<path fill="#A1A1A1" d="M18.875 4.13465V17.5685C18.875 17.8756 18.753 18.1702 18.5358 18.3874C18.3186 18.6046 18.0241 18.7266 17.7169 18.7266H4.28309C3.97594 18.7266 3.68138 18.6046 3.4642 18.3874C3.24701 18.1702 3.125 17.8756 3.125 17.5685V4.13465C3.125 3.82751 3.24701 3.53294 3.4642 3.31576C3.68138 3.09858 3.97594 2.97656 4.28309 2.97656H17.7169C18.0241 2.97656 18.3186 3.09858 18.5358 3.31576C18.753 3.53294 18.875 3.82751 18.875 4.13465ZM7.75735 8.99862H5.44118V16.4104H7.75735V8.99862ZM7.96581 6.45083C7.96703 6.27563 7.93373 6.1019 7.86781 5.93957C7.80189 5.77724 7.70464 5.62949 7.58162 5.50474C7.45859 5.38 7.3122 5.2807 7.1508 5.21254C6.9894 5.14437 6.81616 5.10866 6.64096 5.10744H6.59926C6.24298 5.10744 5.90128 5.24898 5.64935 5.50091C5.39742 5.75285 5.25588 6.09454 5.25588 6.45083C5.25588 6.80711 5.39742 7.14881 5.64935 7.40074C5.90128 7.65268 6.24298 7.79421 6.59926 7.79421C6.77448 7.79852 6.94882 7.76826 7.11234 7.70517C7.27585 7.64208 7.42533 7.54739 7.55224 7.4265C7.67914 7.30562 7.78099 7.16092 7.85195 7.00066C7.92291 6.8404 7.9616 6.66773 7.96581 6.49252V6.45083ZM16.5588 11.9077C16.5588 9.67958 15.1413 8.81333 13.7331 8.81333C13.272 8.79024 12.8129 8.88845 12.4016 9.09815C11.9904 9.30786 11.6412 9.62174 11.3891 10.0085H11.3243V8.99862H9.14706V16.4104H11.4632V12.4683C11.4298 12.0645 11.5569 11.6639 11.8171 11.3534C12.0773 11.0428 12.4496 10.8475 12.8529 10.8099H12.941C13.6775 10.8099 14.2241 11.2731 14.2241 12.4405V16.4104H16.5403L16.5588 11.9077Z"></path>
</svg>
