<svg xmlns="http://www.w3.org/2000/svg" fill="none" viewBox="0 0 23 21" height="21" width="23">
<path fill="#009CDE" d="M18.9813 5.23707C19.2563 3.68707 18.9813 2.63707 18.0463 1.68707C17.0013 0.637073 15.1863 0.187073 12.8213 0.187073H6.00126C5.50626 0.137073 5.12126 0.437073 5.01126 0.887073L2.20626 17.2871C2.15126 17.6371 2.42626 17.9371 2.75626 17.9371H6.99126L6.71626 19.6371C6.66126 19.9371 6.88126 20.1871 7.21126 20.1871H10.7863C11.2263 20.1871 11.5563 19.8871 11.6113 19.5371L11.6663 19.3871L12.3263 15.5371L12.3813 15.3371C12.4363 14.9371 12.8213 14.6871 13.2063 14.6871H13.7563C17.2213 14.6871 19.9163 13.4371 20.6863 9.73707C21.0163 8.18707 20.8513 6.93707 19.9713 5.98707C19.6963 5.63707 19.3663 5.38707 18.9813 5.23707Z"></path>
<path fill="#012169" d="M18.9813 5.23707C19.2563 3.68707 18.9813 2.63707 18.0463 1.68707C17.0013 0.637073 15.1863 0.187073 12.8213 0.187073H6.00126C5.50626 0.137073 5.12126 0.437073 5.01126 0.887073L2.20626 17.2871C2.15126 17.6371 2.42626 17.9371 2.75626 17.9371H6.99126L8.03626 11.8371L7.98126 12.0371C8.03626 11.5871 8.47626 11.2871 8.97126 11.2871H10.9513C14.9113 11.2871 17.9913 9.83707 18.8713 5.63707C18.9263 5.43707 18.9813 5.33707 18.9813 5.23707Z"></path>
<path fill="#003087" d="M9.19126 5.23672C9.24626 4.98672 9.41126 4.78672 9.68626 4.63672C9.79626 4.58672 9.90626 4.53672 10.0713 4.53672H15.4063C16.0663 4.53672 16.6163 4.58672 17.1663 4.63672C17.3313 4.63672 17.4963 4.68672 17.6063 4.73672C17.7713 4.78672 17.8813 4.78672 18.0463 4.83672C18.1013 4.83672 18.1563 4.88672 18.2663 4.88672C18.5413 4.98672 18.7613 5.03672 18.9813 5.18672C19.2563 3.63672 18.9813 2.58672 18.0463 1.63672C17.0013 0.586719 15.1863 0.136719 12.8213 0.136719H6.00126C5.50626 0.136719 5.12126 0.436719 5.01126 0.886719L2.20626 17.2867C2.15126 17.6367 2.42626 17.9367 2.75626 17.9367H6.99126L8.03626 11.8367C8.03626 11.7867 9.19126 5.23672 9.19126 5.23672Z"></path>
</svg>
