<svg xmlns="http://www.w3.org/2000/svg" fill="none" viewBox="0 0 19 19" height="19" width="19">
<g clip-path="url(#clip0_565_3001)">
<path fill="#F0F0F0" d="M9.5 18.5C14.4706 18.5 18.5 14.4706 18.5 9.5C18.5 4.52944 14.4706 0.5 9.5 0.5C4.52944 0.5 0.5 4.52944 0.5 9.5C0.5 14.4706 4.52944 18.5 9.5 18.5Z"></path>
<path fill="#D80027" d="M9.10938 9.50018H18.5007C18.5007 8.68786 18.3924 7.90093 18.1906 7.15234H9.10938V9.50018Z"></path>
<path fill="#D80027" d="M9.10938 4.80438H17.1797C16.6288 3.90537 15.9243 3.11073 15.103 2.45654H9.10938V4.80438Z"></path>
<path fill="#D80027" d="M9.5008 18.5C11.6189 18.5 13.5658 17.7679 15.1032 16.5435H3.89844C5.43582 17.7679 7.38267 18.5 9.5008 18.5Z"></path>
<path fill="#D80027" d="M1.82146 14.1955H17.1795C17.6218 13.4738 17.9649 12.6849 18.1905 11.8477H0.810547C1.03614 12.6849 1.37916 13.4738 1.82146 14.1955V14.1955Z"></path>
<path fill="#0052B4" d="M4.66897 1.90548H5.48913L4.72624 2.45971L5.01765 3.35652L4.25479 2.80228L3.49194 3.35652L3.74366 2.58178C3.07196 3.14129 2.48323 3.79681 1.99808 4.52722H2.26087L1.77526 4.88001C1.6996 5.00622 1.62704 5.13444 1.5575 5.26455L1.78939 5.97826L1.35676 5.66393C1.24921 5.89177 1.15085 6.12475 1.06243 6.36259L1.31791 7.14896H2.26087L1.49798 7.7032L1.78939 8.6L1.02654 8.04576L0.569574 8.37778C0.523836 8.74544 0.5 9.11993 0.5 9.5H9.5C9.5 4.52947 9.5 3.94348 9.5 0.5C7.72208 0.5 6.06471 1.01574 4.66897 1.90548V1.90548ZM5.01765 8.6L4.25479 8.04576L3.49194 8.6L3.78335 7.7032L3.02046 7.14896H3.96342L4.25479 6.25216L4.54617 7.14896H5.48913L4.72624 7.7032L5.01765 8.6ZM4.72624 5.08146L5.01765 5.97826L4.25479 5.42402L3.49194 5.97826L3.78335 5.08146L3.02046 4.52722H3.96342L4.25479 3.63042L4.54617 4.52722H5.48913L4.72624 5.08146ZM8.24591 8.6L7.48305 8.04576L6.7202 8.6L7.01161 7.7032L6.24871 7.14896H7.19168L7.48305 6.25216L7.77443 7.14896H8.71739L7.9545 7.7032L8.24591 8.6ZM7.9545 5.08146L8.24591 5.97826L7.48305 5.42402L6.7202 5.97826L7.01161 5.08146L6.24871 4.52722H7.19168L7.48305 3.63042L7.77443 4.52722H8.71739L7.9545 5.08146ZM7.9545 2.45971L8.24591 3.35652L7.48305 2.80228L6.7202 3.35652L7.01161 2.45971L6.24871 1.90548H7.19168L7.48305 1.00868L7.77443 1.90548H8.71739L7.9545 2.45971Z"></path>
</g>
<defs>
<clipPath id="clip0_565_3001">
<rect transform="translate(0.5 0.5)" fill="white" height="18" width="18"></rect>
</clipPath>
</defs>
</svg>
