<svg xmlns="http://www.w3.org/2000/svg" fill="none" viewBox="0 0 19 19" height="19" width="19">
<g clip-path="url(#clip0_565_2969)">
<path fill="#F0F0F0" d="M9.5 18.5C14.4706 18.5 18.5 14.4706 18.5 9.5C18.5 4.52944 14.4706 0.5 9.5 0.5C4.52944 0.5 0.5 4.52944 0.5 9.5C0.5 14.4706 4.52944 18.5 9.5 18.5Z"></path>
<path fill="#0052B4" d="M2.36097 4.02051C1.65402 4.9403 1.12094 6.00044 0.810547 7.15212H5.49259L2.36097 4.02051Z"></path>
<path fill="#0052B4" d="M18.1898 7.15209C17.8794 6.00044 17.3463 4.9403 16.6394 4.02051L13.5078 7.15209H18.1898Z"></path>
<path fill="#0052B4" d="M0.810547 11.8477C1.12098 12.9993 1.65405 14.0594 2.36097 14.9792L5.49248 11.8477H0.810547Z"></path>
<path fill="#0052B4" d="M14.9792 2.36052C14.0594 1.65356 12.9993 1.12049 11.8477 0.810059V5.49206L14.9792 2.36052Z"></path>
<path fill="#0052B4" d="M4.02148 16.6393C4.94128 17.3463 6.00141 17.8794 7.15306 18.1898V13.5078L4.02148 16.6393Z"></path>
<path fill="#0052B4" d="M7.15303 0.810059C6.00138 1.12049 4.94124 1.65356 4.02148 2.36048L7.15303 5.49203V0.810059Z"></path>
<path fill="#0052B4" d="M11.8477 18.1898C12.9993 17.8794 14.0594 17.3463 14.9792 16.6394L11.8477 13.5078V18.1898Z"></path>
<path fill="#0052B4" d="M13.5078 11.8477L16.6394 14.9792C17.3463 14.0595 17.8794 12.9993 18.1898 11.8477H13.5078Z"></path>
<path fill="#D80027" d="M18.4238 8.3261H10.674H10.6739V0.576184C10.2896 0.526156 9.89786 0.5 9.5 0.5C9.10207 0.5 8.71036 0.526156 8.3261 0.576184V8.32603V8.32606H0.576184C0.526156 8.71036 0.5 9.10214 0.5 9.5C0.5 9.89793 0.526156 10.2896 0.576184 10.6739H8.32603H8.32606V18.4238C8.71036 18.4738 9.10207 18.5 9.5 18.5C9.89786 18.5 10.2896 18.4739 10.6739 18.4238V10.674V10.6739H18.4238C18.4738 10.2896 18.5 9.89793 18.5 9.5C18.5 9.10214 18.4738 8.71036 18.4238 8.3261V8.3261Z"></path>
<path fill="#D80027" d="M11.8477 11.8477L15.8638 15.8638C16.0485 15.6792 16.2247 15.4861 16.3928 15.286L12.9544 11.8477H11.8477V11.8477Z"></path>
<path fill="#D80027" d="M7.15286 11.8477H7.15279L3.13672 15.8637C3.32136 16.0484 3.5144 16.2246 3.71451 16.3928L7.15286 12.9543V11.8477Z"></path>
<path fill="#D80027" d="M7.15256 7.15244V7.15237L3.13645 3.13623C2.95174 3.32087 2.77554 3.51391 2.60742 3.71402L6.04581 7.15241H7.15256V7.15244Z"></path>
<path fill="#D80027" d="M11.8477 7.15211L15.8638 3.13593C15.6792 2.95122 15.4861 2.77502 15.286 2.60693L11.8477 6.04532V7.15211Z"></path>
</g>
<defs>
<clipPath id="clip0_565_2969">
<rect transform="translate(0.5 0.5)" fill="white" height="18" width="18"></rect>
</clipPath>
</defs>
</svg>
