<svg viewBox="0 0 24 24" xmlns="http://www.w3.org/2000/svg" id="a"><defs><style>.b{fill:#fff;}.c{fill:none;stroke:#232323;stroke-linecap:round;stroke-linejoin:round;stroke-width:1.5px;}</style></defs><polygon points="16.3 22.74 12 20.1 7.7 22.74 7.7 13.41 16.3 13.41 16.3 22.74" class="c"></polygon><g><polygon points="19.21 8.43 18.18 10.08 18.25 12.03 16.52 12.95 15.61 14.67 13.66 14.6 12 15.64 10.34 14.6 8.39 14.67 7.48 12.95 5.75 12.03 5.82 10.08 4.79 8.43 5.82 6.77 5.75 4.82 7.48 3.9 8.39 2.18 10.34 2.25 12 1.22 13.66 2.25 15.61 2.18 16.52 3.9 18.25 4.82 18.18 6.77 19.21 8.43" class="b"></polygon><polygon points="19.21 8.43 18.18 10.08 18.25 12.03 16.52 12.95 15.61 14.67 13.66 14.6 12 15.64 10.34 14.6 8.39 14.67 7.48 12.95 5.75 12.03 5.82 10.08 4.79 8.43 5.82 6.77 5.75 4.82 7.48 3.9 8.39 2.18 10.34 2.25 12 1.22 13.66 2.25 15.61 2.18 16.52 3.9 18.25 4.82 18.18 6.77 19.21 8.43" class="c"></polygon></g><circle r="2.32" cy="8.43" cx="12" class="c"></circle></svg>