<svg xmlns="http://www.w3.org/2000/svg" fill="none" viewBox="0 0 22 23" height="23" width="22">
<path fill="#172A73" d="M1.375 11.3516C1.375 6.03582 5.68426 1.72656 11 1.72656C16.3157 1.72656 20.625 6.03582 20.625 11.3516C20.625 16.6673 16.3157 20.9766 11 20.9766C5.68426 20.9766 1.375 16.6673 1.375 11.3516Z"></path>
<path fill="white" d="M3.83203 7.05078V7.46036L5.32936 7.6961C6.39032 7.86314 7.2454 8.6606 7.4926 9.71356L9.2454 17.1796C9.28878 17.3644 9.45252 17.4949 9.64096 17.4949H12.1006C12.2629 17.4949 12.4096 17.3977 12.4739 17.2476L16.7168 7.33668C16.7747 7.2015 16.6763 7.05078 16.5302 7.05078H14.2639C14.1003 7.05078 13.9526 7.14966 13.8892 7.30166L11.0469 14.1159L9.9131 8.05201C9.80453 7.47135 9.30117 7.05078 8.71477 7.05078H3.83203Z"></path>
</svg>
