<svg xmlns="http://www.w3.org/2000/svg" fill="none" viewBox="0 0 22 23" height="23" width="22">
<rect fill="#1271CD" height="19.25" width="18.375" y="1.72656" x="1.40625"></rect>
<path fill="white" d="M5.6875 11.7373L8.62657 4.85547H11.4268L12.4219 7.18953V4.85547H15.9164L16.495 6.66016L17.0967 4.85547H19.7812V5.67364H17.6521L16.5182 8.94614L15.3379 5.67364H13.1625V10.9433L10.9409 5.67364H9.11263L6.86782 10.9433H8.41836L8.81178 9.90864H11.1723L11.5889 10.9433H13.1625H14.5511V7.28583L15.847 10.9433H17.0967L18.439 7.28583V10.9433H19.7812V11.7374H17.9761L16.4719 13.4218L14.9908 11.7374H13.1857H8.83492V17.0311H13.1857H14.9908L16.4719 15.3468L17.9761 17.0311H19.7812V17.8252H17.6058L16.495 16.5258L15.3147 17.8252H8.02487V11.7373H5.6875Z"></path>
<path fill="white" d="M19.7812 17.0311V15.9472L18.4158 14.4083L19.7812 12.9097V11.7374L17.3744 14.4083L19.7812 17.0311Z"></path>
<path fill="white" d="M13.1857 17.0311V15.8521H10.2003V15.0099H13.0931V13.8308H10.2003V12.9886H13.1857V11.7374L15.5925 14.4083L13.1857 17.0311Z"></path>
<path fill="white" d="M10.0152 6.97301L9.29776 8.72957H10.7094L10.0152 6.97301Z"></path>
</svg>
