<svg xmlns="http://www.w3.org/2000/svg" fill="none" viewBox="0 0 18 19" height="19" width="18">
<g clip-path="url(#clip0_5948_17886)">
<path fill="#F0F0F0" d="M17.4402 12.7817C17.802 11.8068 18 10.7522 18 9.65131C18 8.55043 17.802 7.49592 17.4402 6.52089L9 5.73828L0.559793 6.52089C0.198035 7.49592 0 8.55043 0 9.65131C0 10.7522 0.198035 11.8068 0.559793 12.7817L9 13.5643L17.4402 12.7817Z"></path>
<path fill="#D80027" d="M9.00079 18.6508C12.8704 18.6508 16.1694 16.2085 17.441 12.7812H0.560547C1.83222 16.2085 5.13107 18.6508 9.00079 18.6508Z"></path>
<path fill="#D80027" d="M9.00079 0.650391C5.13107 0.650391 1.83222 3.09277 0.560547 6.51997H17.441C16.1694 3.09277 12.8704 0.650391 9.00079 0.650391Z"></path>
</g>
<defs>
<clipPath id="clip0_5948_17886">
<rect transform="translate(0 0.650391)" fill="white" height="18" width="18"></rect>
</clipPath>
</defs>
</svg>
