<svg xmlns="http://www.w3.org/2000/svg" fill="none" viewBox="0 0 19 19" height="19" width="19">
<g clip-path="url(#clip0_565_2950)">
<path fill="#F0F0F0" d="M9.5 18.5C14.4706 18.5 18.5 14.4706 18.5 9.5C18.5 4.52944 14.4706 0.5 9.5 0.5C4.52944 0.5 0.5 4.52944 0.5 9.5C0.5 14.4706 4.52944 18.5 9.5 18.5Z"></path>
<path fill="#D80027" d="M18.4991 9.50003C18.4991 5.93188 16.4226 2.84882 13.4121 1.39307V17.607C16.4226 16.1512 18.4991 13.0682 18.4991 9.50003V9.50003Z"></path>
<path fill="#D80027" d="M0.5 9.50003C0.5 13.0682 2.5765 16.1512 5.58697 17.607V1.39307C2.5765 2.84882 0.5 5.93188 0.5 9.50003Z"></path>
<path fill="#D80027" d="M11.0648 10.6738L12.63 9.89116L11.8474 9.49987V8.71726L10.2822 9.49987L11.0648 7.93464H10.2822L9.49956 6.76074L8.71695 7.93464H7.93433L8.71695 9.49987L7.15172 8.71726V9.49987L6.36914 9.89116L7.93433 10.6738L7.54304 11.4564H9.10827V12.6303H9.89085V11.4564H11.4561L11.0648 10.6738Z"></path>
</g>
<defs>
<clipPath id="clip0_565_2950">
<rect transform="translate(0.5 0.5)" fill="white" height="18" width="18"></rect>
</clipPath>
</defs>
</svg>
