<svg xmlns="http://www.w3.org/2000/svg" fill="none" viewBox="0 0 21 21" height="21" width="21">
<g clip-path="url(#clip0_18176_2644)">
<path fill="#A1A1A1" d="M17.7774 3.63616C16.4389 3.02201 15.0036 2.56953 13.5029 2.31038C13.4756 2.30538 13.4483 2.31788 13.4342 2.34288C13.2496 2.67119 13.0451 3.0995 12.902 3.43615C11.2879 3.19451 9.68203 3.19451 8.10103 3.43615C7.95782 3.09202 7.74592 2.67119 7.5605 2.34288C7.54642 2.31871 7.51912 2.30622 7.49179 2.31038C5.99192 2.56871 4.55662 3.02118 3.21732 3.63616C3.20572 3.64116 3.19579 3.6495 3.18919 3.66032C0.466718 7.72764 -0.279081 11.695 0.0867826 15.6131C0.0884381 15.6323 0.0991986 15.6506 0.114098 15.6623C1.91031 16.9814 3.65024 17.7822 5.35787 18.313C5.3852 18.3213 5.41415 18.3113 5.43155 18.2888C5.83549 17.7372 6.19556 17.1556 6.50429 16.5439C6.52251 16.5081 6.50512 16.4656 6.46788 16.4514C5.89674 16.2348 5.3529 15.9706 4.82976 15.6706C4.78838 15.6465 4.78507 15.5873 4.82314 15.559C4.93323 15.4765 5.04334 15.3906 5.14846 15.304C5.16748 15.2881 5.19398 15.2848 5.21634 15.2948C8.65312 16.8639 12.3739 16.8639 15.7701 15.2948C15.7924 15.284 15.8189 15.2873 15.8388 15.3031C15.9439 15.3898 16.054 15.4765 16.1649 15.559C16.203 15.5873 16.2005 15.6465 16.1591 15.6706C15.636 15.9764 15.0922 16.2348 14.5202 16.4506C14.483 16.4648 14.4664 16.5081 14.4846 16.5439C14.8 17.1547 15.16 17.7364 15.5565 18.288C15.5731 18.3113 15.6029 18.3213 15.6302 18.313C17.3461 17.7822 19.086 16.9814 20.8823 15.6623C20.898 15.6506 20.9079 15.6331 20.9096 15.614C21.3474 11.0841 20.1762 7.14934 17.8047 3.66115C17.7989 3.6495 17.789 3.64116 17.7774 3.63616ZM7.01752 13.2274C5.98281 13.2274 5.13024 12.2775 5.13024 11.1108C5.13024 9.9442 5.96628 8.99426 7.01752 8.99426C8.07701 8.99426 8.92133 9.95254 8.90477 11.1108C8.90477 12.2775 8.06873 13.2274 7.01752 13.2274ZM13.9954 13.2274C12.9607 13.2274 12.1082 12.2775 12.1082 11.1108C12.1082 9.9442 12.9442 8.99426 13.9954 8.99426C15.0549 8.99426 15.8992 9.95254 15.8827 11.1108C15.8827 12.2775 15.0549 13.2274 13.9954 13.2274Z"></path>
</g>
<defs>
<clipPath id="clip0_18176_2644">
<rect fill="white" height="21" width="21"></rect>
</clipPath>
</defs>
</svg>
