<svg xmlns="http://www.w3.org/2000/svg" fill="none" viewBox="0 0 19 19" height="19" width="19">
<g clip-path="url(#clip0_565_3055)">
<path fill="#0052B4" d="M9.5 18.5C14.4706 18.5 18.5 14.4706 18.5 9.5C18.5 4.52944 14.4706 0.5 9.5 0.5C4.52944 0.5 0.5 4.52944 0.5 9.5C0.5 14.4706 4.52944 18.5 9.5 18.5Z"></path>
<path fill="#FFDA44" d="M9.49996 4.02197L9.79137 4.91877H10.7343L9.97141 5.47301L10.2628 6.36981L9.49996 5.81554L8.73707 6.36981L9.02848 5.47301L8.26562 4.91877H9.20855L9.49996 4.02197Z"></path>
<path fill="#FFDA44" d="M5.62532 5.62634L6.46556 6.0544L7.1323 5.3877L6.98475 6.31898L7.82495 6.74708L6.89362 6.8946L6.74611 7.82596L6.31801 6.98576L5.38672 7.13331L6.05346 6.46657L5.62532 5.62634Z"></path>
<path fill="#FFDA44" d="M4.02148 9.50045L4.91829 9.20904V8.26611L5.47249 9.029L6.36932 8.73759L5.81502 9.50045L6.36932 10.2633L5.47249 9.97193L4.91829 10.7348V9.79186L4.02148 9.50045Z"></path>
<path fill="#FFDA44" d="M5.62532 13.3739L6.05342 12.5337L5.38672 11.8669L6.31804 12.0145L6.74607 11.1743L6.89362 12.1056L7.82491 12.2532L6.98482 12.6813L7.1323 13.6125L6.46556 12.9458L5.62532 13.3739Z"></path>
<path fill="#FFDA44" d="M9.49996 14.9786L9.20852 14.0818H8.26562L9.02852 13.5276L8.73707 12.6309L9.49996 13.1851L10.2628 12.6309L9.97141 13.5276L10.7343 14.0818H9.79134L9.49996 14.9786Z"></path>
<path fill="#FFDA44" d="M13.3734 13.3739L12.5332 12.9458L11.8664 13.6126L12.014 12.6812L11.1738 12.2532L12.1051 12.1056L12.2526 11.1743L12.6807 12.0145L13.612 11.8669L12.9452 12.5337L13.3734 13.3739Z"></path>
<path fill="#FFDA44" d="M14.9786 9.50045L14.0818 9.79186V10.7348L13.5276 9.97189L12.6309 10.2633L13.1851 9.50045L12.6309 8.73759L13.5276 9.029L14.0818 8.26611V9.20907L14.9786 9.50045Z"></path>
<path fill="#FFDA44" d="M13.3734 5.6263L12.9453 6.46654L13.612 7.13327L12.6807 6.98569L12.2526 7.82589L12.1051 6.89456L11.1738 6.74701L12.014 6.31895L11.8664 5.3877L12.5332 6.0544L13.3734 5.6263Z"></path>
</g>
<defs>
<clipPath id="clip0_565_3055">
<rect transform="translate(0.5 0.5)" fill="white" height="18" width="18"></rect>
</clipPath>
</defs>
</svg>
