<svg xmlns="http://www.w3.org/2000/svg" fill="none" viewBox="0 0 39 19" height="19" width="39">
<g clip-path="url(#clip0_1426_358)">
<path fill="#FF5900" d="M28.0482 6.89735V4.47525H24.4855V2.86864H28.0482V0.351562H21.8672V11.6439H28.0482V9.11996H24.4855V6.89735H28.0482Z"></path>
<path fill="#FF5900" d="M32.9253 6.21662L31.3671 4.47525H28.0482L31.1939 8.05986L28.0482 11.6439H31.2661L32.7955 9.88878L34.3391 11.6439H37.6716L34.4981 8.045L37.6287 4.47525H34.4254L32.9253 6.21662Z"></path>
<path fill="#691DFF" d="M19.2609 0.351562V4.97293H19.2321C18.6544 4.30016 17.9334 4.06617 17.0968 4.06617C15.3826 4.06617 14.0913 5.24831 13.6382 6.81034C13.1207 5.08913 11.7875 4.0338 9.8107 4.0338C8.2054 4.0338 6.9376 4.76441 6.27623 5.95504V4.47525H2.95786V2.86864H6.57918V0.351562H0V11.6439H2.95786V6.89736H5.9063C5.8184 7.24595 5.77131 7.61948 5.77131 8.0137C5.77131 10.369 7.54613 12.0222 9.8107 12.0222C11.7153 12.0222 12.9705 11.1155 13.634 9.46272H11.0989C10.7562 9.95988 10.4961 10.1068 9.8107 10.1068C9.0159 10.1068 8.33046 9.40382 8.33046 8.57028H13.4922C13.7161 10.4411 15.1535 12.0546 17.1256 12.0546C17.9763 12.0546 18.7554 11.6301 19.2316 10.9139H19.2604V11.645H21.8676V0.351562H19.2609ZM8.41313 6.93078C8.57743 6.21343 9.1263 5.74493 9.81122 5.74493C10.5652 5.74493 11.0858 6.19911 11.2229 6.93078C11.2805 6.93078 8.41313 6.93078 8.41313 6.93078ZM17.6781 9.92486C16.7169 9.92486 16.1194 9.0165 16.1194 8.06835C16.1194 7.05494 16.6389 6.08026 17.6781 6.08026C18.7554 6.08026 19.1845 7.05494 19.1845 8.06835C19.1845 9.02923 18.7298 9.92486 17.6781 9.92486Z"></path>
<path fill="#691DFF" d="M21.8672 17.2904V13.2441H24.0721V13.546H22.2308V15.038H23.9941V15.3399H22.2308V16.9879H24.1543V17.2904H21.8672Z"></path>
<path fill="#691DFF" d="M24.4175 17.2909L25.4927 15.8376L24.4729 14.4629H24.8863L25.7187 15.5861L26.5345 14.4629H26.9478L25.9118 15.8376L26.9918 17.2909H26.5732L25.68 16.0886L24.8313 17.2909H24.4175Z"></path>
<path fill="#691DFF" d="M27.3549 18.3521H27.6914V16.8823C27.8897 17.2071 28.1926 17.3577 28.5788 17.3577C29.4384 17.3577 29.8073 16.6372 29.8073 15.8764C29.8073 15.1166 29.4384 14.396 28.5788 14.396C28.1649 14.396 27.8891 14.552 27.6804 14.8879L27.6694 14.4629H27.3382C27.3549 14.743 27.3549 15.0274 27.3549 15.307V18.3521ZM28.54 14.6804C29.2009 14.6804 29.4494 15.2731 29.4494 15.8764C29.4494 16.4802 29.2014 17.0723 28.54 17.0723C27.9174 17.0723 27.6914 16.5529 27.6914 15.8764C27.6914 15.2004 27.9174 14.6804 28.54 14.6804Z" clip-rule="evenodd" fill-rule="evenodd"></path>
<path fill="#691DFF" d="M31.5361 14.725C30.9794 14.725 30.7858 15.2004 30.7858 15.6917V17.2909H30.4493V15.2948C30.4493 15.0211 30.4441 14.7425 30.4331 14.4629H30.7648L30.7863 14.8709C30.9516 14.5473 31.2279 14.396 31.5968 14.396C31.6465 14.396 31.7014 14.4013 31.7511 14.4072V14.7483L31.7406 14.7467L31.7272 14.7445C31.6608 14.7339 31.6049 14.725 31.5361 14.725Z"></path>
<path fill="#691DFF" d="M33.0718 17.0999C32.4601 17.0999 32.1629 16.5746 32.1629 15.9379H34.1957C34.1957 15.1834 33.9587 14.396 33.0713 14.396C32.1948 14.396 31.8035 15.1171 31.8035 15.9273C31.8035 16.7205 32.1786 17.3577 33.0273 17.3577C33.6609 17.3577 34.0194 17.0553 34.1685 16.4632H33.8488C33.7661 16.7815 33.5453 17.0999 33.0718 17.0999ZM33.8378 15.6811H32.1734C32.2393 15.0211 32.5705 14.6523 33.0498 14.6528C33.5793 14.6528 33.8378 15.1277 33.8378 15.6811Z" clip-rule="evenodd" fill-rule="evenodd"></path>
<path fill="#691DFF" d="M35.5085 17.3577C34.9356 17.3577 34.506 17.0834 34.506 16.4632H34.8424C34.8424 16.8876 35.1177 17.0999 35.5258 17.0999C35.9062 17.0999 36.2034 16.9152 36.2034 16.5364C36.2034 16.2061 35.8782 16.1115 35.5275 16.0095L35.4928 15.9995C35.0522 15.8711 34.5724 15.731 34.5724 15.1834C34.5724 14.5748 35.0737 14.396 35.5425 14.396C36.082 14.396 36.4849 14.6077 36.5011 15.1946H36.1647C36.1484 14.8598 35.9114 14.6698 35.553 14.6698C35.272 14.6698 34.9303 14.7812 34.9303 15.15C34.9303 15.4858 35.272 15.5808 35.6357 15.6811L35.6362 15.6813C36.0777 15.8038 36.5618 15.9381 36.5618 16.486C36.5613 17.1227 36.0767 17.3577 35.5085 17.3577Z"></path>
<path fill="#691DFF" d="M36.837 16.4632C36.837 17.0834 37.2666 17.3577 37.84 17.3577C38.4078 17.3577 38.8928 17.1227 38.8939 16.486C38.8939 15.9384 38.4098 15.8039 37.969 15.6815L37.9677 15.6811C37.6035 15.5808 37.2619 15.4858 37.2619 15.15C37.2619 14.7812 37.6035 14.6698 37.8845 14.6698C38.2429 14.6698 38.48 14.8598 38.4962 15.1946H38.8326C38.8164 14.6077 38.4135 14.396 37.8741 14.396C37.4052 14.396 36.904 14.5748 36.904 15.1834C36.904 15.731 37.3833 15.8711 37.8238 15.9995C37.8355 16.0029 37.8472 16.0063 37.8589 16.0097C38.2095 16.1116 38.5349 16.2062 38.5349 16.5364C38.5349 16.9152 38.2377 17.0999 37.8573 17.0999C37.4487 17.0999 37.1734 16.8876 37.1734 16.4632H36.837Z"></path>
</g>
<defs>
<clipPath id="clip0_1426_358">
<rect transform="translate(0 0.351562)" fill="white" height="18" width="39"></rect>
</clipPath>
</defs>
</svg>
