<svg xmlns="http://www.w3.org/2000/svg" fill="none" viewBox="0 0 19 19" height="19" width="19">
<g clip-path="url(#clip0_565_2921)">
<path fill="#FFDA44" d="M1.06055 12.6302C2.33218 16.0574 5.63107 18.4998 9.50075 18.4998C13.3704 18.4998 16.6693 16.0574 17.941 12.6302L9.50075 11.8477L1.06055 12.6302Z"></path>
<path fill="black" d="M9.50075 0.5C5.63107 0.5 2.33218 2.94237 1.06055 6.36958L9.50075 7.15216L17.941 6.36955C16.6693 2.94237 13.3704 0.5 9.50075 0.5Z"></path>
<path fill="#D80027" d="M1.05979 6.36963C0.698035 7.34462 0.5 8.39916 0.5 9.50005C0.5 10.6009 0.698035 11.6555 1.05979 12.6305H17.9402C18.302 11.6555 18.5 10.6009 18.5 9.50005C18.5 8.39916 18.302 7.34462 17.9402 6.36963H1.05979Z"></path>
</g>
<defs>
<clipPath id="clip0_565_2921">
<rect transform="translate(0.5 0.5)" fill="white" height="18" width="18"></rect>
</clipPath>
</defs>
</svg>
