<svg fill-rule="evenodd" fill="#a1a1a1" height="22" width="22" xmlns="http://www.w3.org/2000/svg"><path d="M11 3.044l-3.247.047c-.838.038-1.411.172-1.912.366-.525.197-1.001.507-1.395.908a3.87 3.87 0 0 0-.908 1.394c-.194.501-.328 1.074-.366 1.913l-.047 3.246.047 3.247c.038.838.172 1.411.366 1.912.197.525.507 1.001.908 1.395.393.401.869.71 1.394.908.501.194 1.074.328 1.912.366l3.247.047 3.247-.047c.838-.038 1.411-.172 1.912-.366.525-.197 1.001-.507 1.395-.908a3.87 3.87 0 0 0 .908-1.394c.194-.501.328-1.074.366-1.912l.047-3.247-.047-3.247c-.038-.838-.172-1.411-.366-1.912a3.86 3.86 0 0 0-.908-1.395 3.86 3.86 0 0 0-1.394-.908c-.501-.194-1.074-.328-1.912-.366L11 3.044zm0 1.419l3.182.046c.768.035 1.184.163 1.462.271a2.44 2.44 0 0 1 .906.589 2.43 2.43 0 0 1 .588.906c.108.278.236.695.271 1.462l.046 3.183-.046 3.183c-.035.768-.163 1.184-.271 1.462a2.44 2.44 0 0 1-.588.906c-.254.262-.563.463-.906.589-.278.108-.695.236-1.462.271L11 17.375c-2.103 0-2.352-.008-3.183-.046-.768-.035-1.184-.163-1.462-.271a2.44 2.44 0 0 1-.906-.589 2.44 2.44 0 0 1-.589-.906c-.108-.278-.236-.695-.271-1.462l-.046-3.183.046-3.183c.035-.768.163-1.184.271-1.462a2.44 2.44 0 0 1 .589-.906 2.44 2.44 0 0 1 .906-.589c.278-.108.695-.236 1.462-.271L11 4.464zm0 9.084a2.63 2.63 0 0 1-2.628-2.628 2.63 2.63 0 0 1 .77-1.858c.244-.244.534-.438.852-.57s.66-.2 1.006-.2a2.63 2.63 0 0 1 2.628 2.628A2.63 2.63 0 0 1 11 13.547zm0-6.675a4.05 4.05 0 0 0-4.048 4.048A4.05 4.05 0 0 0 11 14.967a4.05 4.05 0 0 0 4.048-4.048A4.05 4.05 0 0 0 11 6.872zm5.225-.074a.96.96 0 0 1-.28.677c-.179.18-.423.28-.677.28a.96.96 0 0 1-.677-.28c-.18-.179-.28-.423-.28-.677a.96.96 0 0 1 .28-.677c.179-.18.423-.28.677-.28a.96.96 0 0 1 .677.28c.18.179.28.423.28.677z"></path></svg>