<svg xmlns="http://www.w3.org/2000/svg" fill="none" viewBox="0 0 18 19" height="19" width="18">
<g clip-path="url(#clip0_5948_17898)">
<path fill="#FFDA44" d="M9 18.6504C13.9706 18.6504 18 14.621 18 9.65039C18 4.67983 13.9706 0.650391 9 0.650391C4.02944 0.650391 0 4.67983 0 9.65039C0 14.621 4.02944 18.6504 9 18.6504Z"></path>
<path fill="#0052B4" d="M7.043 8.47649H17.9233C17.348 4.06062 13.5722 0.650391 8.99948 0.650391C8.32751 0.650391 7.67293 0.724676 7.04297 0.864316V8.47649H7.043Z"></path>
<path fill="#0052B4" d="M4.69563 8.47589V1.74414C2.22436 3.09252 0.455262 5.5658 0.0761719 8.47593H4.69563V8.47589Z"></path>
<path fill="#0052B4" d="M4.6956 10.8242H0.0761719C0.455262 13.7343 2.22436 16.2076 4.69563 17.556L4.6956 10.8242Z"></path>
<path fill="#0052B4" d="M7.04297 10.8243V18.4364C7.67293 18.576 8.32751 18.6503 8.99948 18.6503C13.5722 18.6503 17.348 15.2401 17.9233 10.8242H7.04297V10.8243Z"></path>
</g>
<defs>
<clipPath id="clip0_5948_17898">
<rect transform="translate(0 0.650391)" fill="white" height="18" width="18"></rect>
</clipPath>
</defs>
</svg>
