<svg xmlns="http://www.w3.org/2000/svg" fill="none" viewBox="0 0 22 22" height="22" width="22">
<path fill="#A1A1A1" d="M16.3527 5.60938C15.41 4.99476 14.7297 4.01135 14.5174 2.86497C14.4716 2.61728 14.4464 2.36238 14.4464 2.10156H11.4378L11.433 14.159C11.3824 15.5092 10.2711 16.593 8.90874 16.593C8.48532 16.593 8.08663 16.4871 7.73559 16.3024C6.9306 15.8787 6.3797 15.035 6.3797 14.064C6.3797 12.6694 7.51429 11.5348 8.90874 11.5348C9.16905 11.5348 9.41876 11.5777 9.65497 11.6517V8.58027C9.41052 8.54699 9.16216 8.52618 8.90874 8.52618C5.85522 8.52618 3.37109 11.0104 3.37109 14.064C3.37109 15.9374 4.30713 17.5954 5.73515 18.5979C6.63464 19.2294 7.72875 19.6016 8.90874 19.6016C11.9623 19.6016 14.4464 17.1175 14.4464 14.064V7.94978C15.6264 8.79672 17.0721 9.29582 18.6321 9.29582V6.28721C17.7918 6.28721 17.0091 6.03738 16.3527 5.60938Z"></path>
</svg>
