<svg viewBox="0 0 24 24" xmlns="http://www.w3.org/2000/svg" id="a"><defs><style>.b{fill:#fff;}.b,.c{stroke:#232323;stroke-linecap:round;stroke-linejoin:round;stroke-width:1.5px;}.c{fill:none;}</style></defs><path d="M4.42,9.77c0-1.33,1.08-2.42,2.42-2.42h12.32c1.33,0,2.42,1.08,2.42,2.42v10.35c0,1.33-1.08,2.42-2.42,2.42H6.83" class="c"></path><path d="M20.42,2.19H5.35c-1.29,0-2.34,1.08-2.34,2.42v2.88c0,1.74,1.53,3.16,3.41,3.16s3.29-1.82,3.29-1.82c0,0,1.49,1.82,3.17,1.82s3.14-1.88,3.14-1.88c0,0,1.44,1.88,3.32,1.88s3.41-1.41,3.41-3.16v-2.88c0-1.33-1.05-2.42-2.34-2.42Z" class="b"></path><path d="M15.68,14.01h.2c1.62,0,2.93,1.31,2.93,2.93v5.6h-6.06v-5.6c0-1.62,1.31-2.93,2.93-2.93Z" class="c"></path><path d="M.99,15.47c0,1.82,3.3,6.91,3.3,6.91,0,0,3.3-5.09,3.3-6.91s-1.48-3.3-3.3-3.3-3.3,1.48-3.3,3.3Z" class="b"></path><circle r=".73" cy="15.5" cx="4.24" class="b"></circle></svg>