<svg viewBox="0 0 427.54 292.78" xmlns="http://www.w3.org/2000/svg" data-sanitized-data-name="Layer 1" data-name="Layer 1" id="Layer_1">
  <defs>
    <style>
      .cls-1 {
        fill: #000;
        stroke-width: 0px;
      }
    </style>
  </defs>
  <path d="M422.58,77.46c-47.15-97.64-204.94,16.83-284.73,7.33,3.9-7.33,22.18-45.26,22.47-61.6.55-32.45-35.29-26.32-50.36-9.08-57.67,65.94,10.47,78.85,10.47,78.85-15.64,27.6-86.24,127.08-93.61,122.82-7.36-4.26-4.62-110.18,5.58-149.93,4.88-18.96-20.83-15.21-20.83-15.21-23.42,138.99-4.92,170.01.41,178.2,18.5,28.37,108.8-117.18,120.37-134.05,60.78,8.98,220.87-83.62,269.37-16.45,40.43,56.03-99.71,206.87-128.17,128.77,0,0,87.1-57,86.22-75.99-3.51-75.66-104.12,11.96-101.12,69.19-65.74,41.07-117.71,30.53-78.1-28.45,33.54-50.75,55.3-55.67,62.97-53.86,11.01,3.76,4.03,18.31-2.05,25.74,0,0,12.65,3.92,17.85-4.84,3.22-5.91,9.92-20.39-5.29-29.61-7.24-4.43-39.89-17.91-88.49,58.84-14.92,24.75-33.3,67.37-44.02,58.02-10.71-9.35,28.51-83.3,33.96-94.37,5.26-10.68-11.39-13.59-11.39-13.59-43.46,83.43-41.55,107.66-22.6,114.52,14.62,5.28,31.17-22.28,31.17-22.28-2.15,42.26,71.33,25.45,108.06,3.04,29.78,86.42,197.59-62.03,161.85-135.99M126.51,82.64s-12.35-1.04-21.76-12.09c-11.02-12.9,18.91-58.23,36.63-57.65,23.75.78-14.87,69.74-14.87,69.74M321.46,123.29c17.91-11.23,29.05.29,28.12,7.09-1.31,9.46-54.56,50.93-77.32,64.09-2.1-12.86,29.53-58.84,49.2-71.19" class="cls-1"></path>
  <path d="M140.69,267.06c-2.22-2.12-5.52-3.31-8.4-3.31-7.08,0-11.38,5.38-11.38,12.18,0,5.43,3.16,11.04,11.38,11.04,2.6,0,4.86-.56,7.46-2.64v-5.85h-8.45v-5.57h14.16v13.93c-3.26,3.73-7.37,5.95-13.17,5.95-12.42,0-17.47-8.17-17.47-16.85,0-9.3,5.81-17.89,17.47-17.89,4.44,0,8.87,1.7,12.27,5.05l-3.87,3.96Z" class="cls-1"></path>
  <path d="M195.32,275.7c-.1,8.54-5.33,17.09-16.95,17.09s-16.99-8.36-16.99-17.04,5.57-17.42,16.99-17.42,17.04,8.73,16.95,17.37M167.51,275.84c.14,5.43,3.07,11.23,10.86,11.23s10.72-5.85,10.81-11.28c.09-5.57-3.02-11.8-10.81-11.8s-11,6.28-10.86,11.85" class="cls-1"></path>
  <polygon points="218.41 258.99 218.41 286.27 235.41 286.27 235.41 292.03 212.19 292.03 212.19 258.99 218.41 258.99" class="cls-1"></polygon>
  <polygon points="252.08 292.03 252.08 259.03 275.83 259.03 275.83 265.03 258.31 265.03 258.31 274.04 274.88 274.04 274.88 279.8 258.31 279.8 258.31 292.03 252.08 292.03" class="cls-1"></polygon>
</svg>