<svg viewBox="0 0 32 32" xmlns="http://www.w3.org/2000/svg" id="a"><defs><style>.b{fill:none;stroke:#232323;stroke-linecap:round;stroke-linejoin:round;stroke-width:1.5px;}</style></defs><polyline points="20.58 28.65 7.17 28.65 7.17 11.02 26.76 10.57 26.76 13.23" class="b"></polyline><path d="M30.76,16.59c-2.65,0-5.82-2.16-6.02-2.01-.2-.15-3.36,2.01-6.02,2.01,0,0-.89,8.58,5.71,11.55,0,0,.21,.17,.31,.13,.11,.04,.31-.13,.31-.13,6.62-2.96,5.71-11.55,5.71-11.55Z" class="b"></path><polyline points="22.27 21.41 23.93 22.97 27.72 18.95" class="b"></polyline><polyline points="26.76 10.57 18.69 5.23 2.05 5.8 7.17 11.02" class="b"></polyline><polyline points="2.05 5.8 2.05 24.92 7.17 28.65" class="b"></polyline></svg>