<svg xmlns="http://www.w3.org/2000/svg" fill="none" viewBox="0 0 22 22" height="22" width="22">
<path fill="#A1A1A1" d="M17.818 5.08942C18.5706 5.2916 19.1659 5.88692 19.3681 6.63948C19.7388 8.00983 19.75 10.8516 19.75 10.8516C19.75 10.8516 19.75 13.7046 19.3793 15.0637C19.1772 15.8163 18.5818 16.4116 17.8293 16.6138C16.4702 16.9845 11 16.9845 11 16.9845C11 16.9845 5.52985 16.9845 4.17073 16.6138C3.41816 16.4116 2.82285 15.8163 2.62067 15.0637C2.25 13.6934 2.25 10.8516 2.25 10.8516C2.25 10.8516 2.25 8.00983 2.60943 6.65072C2.81162 5.89815 3.40693 5.30283 4.1595 5.10065C5.51861 4.72998 10.9888 4.71875 10.9888 4.71875C10.9888 4.71875 16.4589 4.71875 17.818 5.08942ZM13.7856 10.8516L9.24775 13.48V8.22324L13.7856 10.8516Z" clip-rule="evenodd" fill-rule="evenodd"></path>
</svg>
